<svg width="42" height="36" viewBox="0 0 42 36" fill="none" xmlns="http://www.w3.org/2000/svg">
<path id="Mask" fill-rule="evenodd" clip-rule="evenodd" d="M11.041 4.5C9.24103 4.5 7.55353 5.19583 6.29103 6.46041C3.6702 9.08541 3.6702 13.3583 6.29312 15.9875L20.9994 30.7187L35.7077 15.9875C38.3306 13.3583 38.3306 9.08541 35.7077 6.46041C33.1827 3.92916 28.7327 3.93333 26.2077 6.46041L22.4744 10.2C21.691 10.9854 20.3077 10.9854 19.5244 10.2L15.791 6.45833C14.5285 5.19583 12.8431 4.5 11.041 4.5ZM20.9994 35.75C20.4473 35.75 19.916 35.5312 19.5264 35.1375L3.34312 18.9292C-0.898551 14.6792 -0.898551 7.76458 3.34312 3.51458C5.39312 1.46458 8.12645 0.333328 11.041 0.333328C13.9556 0.333328 16.691 1.46458 18.7389 3.51458L20.9994 5.77916L23.2598 3.51666C25.3098 1.46458 28.0431 0.333328 30.9598 0.333328C33.8723 0.333328 36.6077 1.46458 38.6556 3.51458C42.8994 7.76458 42.8994 14.6792 38.6577 18.9292L22.4744 35.1396C22.0827 35.5312 21.5535 35.75 20.9994 35.75Z" fill="black"/>
</svg>
